<svg id="Layer_2" data-name="Layer 2" xmlns="http://www.w3.org/2000/svg" width="26" height="26" viewBox="0 0 26 26">
  <g id="invisible_box" data-name="invisible box">
    <rect id="Rectangle_5" data-name="Rectangle 5" width="26" height="26" fill="none"/>
  </g>
  <g id="icons_Q2" data-name="icons Q2" transform="translate(1.899 2.085)">
    <path id="Path_2" data-name="Path 2" d="M18.091,16.767a7.863,7.863,0,0,0,1.594-5.791,8.075,8.075,0,0,0-7.331-7.013A7.982,7.982,0,1,0,10.76,19.849,8.128,8.128,0,0,0,16.6,18.308L23.244,24.9a1.009,1.009,0,0,0,1.488,0h0a1.009,1.009,0,0,0,0-1.487Zm-5.366.956a5.844,5.844,0,0,1-6.694-6.8A5.737,5.737,0,0,1,10.76,6.2a5.791,5.791,0,0,1,6.747,6.747,5.9,5.9,0,0,1-4.781,4.781Z" transform="translate(-3.574 -3.924)"/>
  </g>
</svg>
